<svg width="16" height="12" viewBox="0 0 16 12" fill="none" xmlns="http://www.w3.org/2000/svg">
<path d="M6.1998 11.2002C6.4998 10.9002 6.4998 10.4002 6.1998 10.1002L2.8998 6.80019H14.9998C15.3998 6.80019 15.7998 6.4002 15.7998 6.0002C15.7998 5.5002 15.3998 5.20019 14.9998 5.20019H2.8998L6.1998 1.90019C6.4998 1.60019 6.4998 1.1002 6.1998 0.800195C5.8998 0.500195 5.39981 0.500195 5.0998 0.800195L0.499804 5.40019C0.299804 5.60019 0.299805 5.8002 0.299805 6.0002C0.299805 6.20019 0.399804 6.4002 0.499804 6.6002L5.0998 11.2002C5.2998 11.4002 5.4998 11.4002 5.6998 11.4002C5.8998 11.4002 6.0998 11.3002 6.1998 11.2002Z" fill="black"/>
</svg>
