<svg width="20" height="20" viewBox="0 0 20 20" fill="none" xmlns="http://www.w3.org/2000/svg">
<mask id="path-1-inside-1_1096_50" fill="white">
<path d="M11.689 18.3951C11.8456 19.173 11.3407 19.9415 10.5484 19.985C8.64832 20.0893 6.74687 19.6496 5.07356 18.7023C2.98112 17.5178 1.38554 15.6189 0.579146 13.3537C-0.227247 11.0885 -0.190459 8.60859 0.682772 6.3683C1.556 4.128 3.2072 2.27735 5.33386 1.15539C7.46052 0.033432 9.92023 -0.284702 12.2624 0.259274C14.6045 0.803247 16.6722 2.17291 18.0867 4.11732C19.5011 6.06173 20.1676 8.45069 19.9641 10.8465C19.8013 12.7625 19.0909 14.5802 17.932 16.0896C17.4488 16.719 16.5295 16.7019 15.9758 16.1335C15.4221 15.5652 15.4487 14.6616 15.8946 14.0053C16.5776 13.0002 16.9969 11.83 17.1011 10.6033C17.2461 8.89586 16.7711 7.19333 15.7631 5.80761C14.755 4.4219 13.2815 3.44579 11.6123 3.05812C9.94315 2.67044 8.1902 2.89717 6.6746 3.69675C5.15901 4.49633 3.98225 5.81523 3.35993 7.41181C2.73761 9.00839 2.71139 10.7758 3.28608 12.3901C3.86077 14.0044 4.99788 15.3577 6.48909 16.2018C7.56045 16.8083 8.76303 17.1229 9.97826 17.1266C10.7717 17.1291 11.5325 17.6172 11.689 18.3951Z"/>
</mask>
<path d="M11.689 18.3951C11.8456 19.173 11.3407 19.9415 10.5484 19.985C8.64832 20.0893 6.74687 19.6496 5.07356 18.7023C2.98112 17.5178 1.38554 15.6189 0.579146 13.3537C-0.227247 11.0885 -0.190459 8.60859 0.682772 6.3683C1.556 4.128 3.2072 2.27735 5.33386 1.15539C7.46052 0.033432 9.92023 -0.284702 12.2624 0.259274C14.6045 0.803247 16.6722 2.17291 18.0867 4.11732C19.5011 6.06173 20.1676 8.45069 19.9641 10.8465C19.8013 12.7625 19.0909 14.5802 17.932 16.0896C17.4488 16.719 16.5295 16.7019 15.9758 16.1335C15.4221 15.5652 15.4487 14.6616 15.8946 14.0053C16.5776 13.0002 16.9969 11.83 17.1011 10.6033C17.2461 8.89586 16.7711 7.19333 15.7631 5.80761C14.755 4.4219 13.2815 3.44579 11.6123 3.05812C9.94315 2.67044 8.1902 2.89717 6.6746 3.69675C5.15901 4.49633 3.98225 5.81523 3.35993 7.41181C2.73761 9.00839 2.71139 10.7758 3.28608 12.3901C3.86077 14.0044 4.99788 15.3577 6.48909 16.2018C7.56045 16.8083 8.76303 17.1229 9.97826 17.1266C10.7717 17.1291 11.5325 17.6172 11.689 18.3951Z" fill="#C4C4C4" stroke="white" stroke-width="6" stroke-linecap="round" stroke-linejoin="round" mask="url(#path-1-inside-1_1096_50)"/>
</svg>
