<svg width="24" height="24" viewBox="0 0 24 24" fill="none" xmlns="http://www.w3.org/2000/svg">
<g id="Paper">
<g id="Paper_2">
<g id="Group 3">
<mask id="mask0_117_228" style="mask-type:alpha" maskUnits="userSpaceOnUse" x="4" y="2" width="17" height="20">
<path id="Clip 2" fill-rule="evenodd" clip-rule="evenodd" d="M4 2.01033H20.7395V21.4991H4V2.01033Z" fill="white"/>
</mask>
<g mask="url(#mask0_117_228)">
<path id="Fill 1" fill-rule="evenodd" clip-rule="evenodd" d="M8.48896 3.48363C6.86239 3.48363 5.51167 4.80098 5.47339 6.42558V16.9241C5.43707 18.6057 6.76227 19.9907 8.42711 20.028H16.343C17.9813 19.9603 19.279 18.5988 19.2673 16.93V8.22295L14.7174 3.48363H8.50074H8.48896ZM8.50088 21.4996H8.39388C5.91821 21.4437 3.94709 19.3842 4.00108 16.9076V6.40705C4.05802 3.97163 6.06938 2.01033 8.48714 2.01033H8.50382H15.0317C15.2319 2.01033 15.4233 2.09181 15.5627 2.23611L20.5347 7.41617C20.6662 7.55262 20.7399 7.73618 20.7399 7.92564V16.9233C20.7575 19.3862 18.8394 21.3985 16.3726 21.4986L8.50088 21.4996Z" fill="#4F4F4F"/>
</g>
</g>
<path id="Fill 4" fill-rule="evenodd" clip-rule="evenodd" d="M19.9986 8.85571H17.2942C15.4978 8.8508 14.0371 7.38621 14.0371 5.59179V2.73622C14.0371 2.32983 14.3669 2 14.7733 2C15.1797 2 15.5096 2.32983 15.5096 2.73622V5.59179C15.5096 6.57734 16.3115 7.38032 17.2961 7.38326H19.9986C20.4049 7.38326 20.7348 7.71309 20.7348 8.11949C20.7348 8.52588 20.4049 8.85571 19.9986 8.85571Z" fill="#4F4F4F"/>
<path id="Fill 6" fill-rule="evenodd" clip-rule="evenodd" d="M14.5898 15.8489H9.28896C8.88256 15.8489 8.55273 15.5191 8.55273 15.1127C8.55273 14.7063 8.88256 14.3765 9.28896 14.3765H14.5898C14.9962 14.3765 15.326 14.7063 15.326 15.1127C15.326 15.5191 14.9962 15.8489 14.5898 15.8489Z" fill="#4F4F4F"/>
<path id="Fill 8" fill-rule="evenodd" clip-rule="evenodd" d="M12.5829 12.1659H9.28853C8.88214 12.1659 8.55231 11.836 8.55231 11.4296C8.55231 11.0232 8.88214 10.6934 9.28853 10.6934H12.5829C12.9893 10.6934 13.3191 11.0232 13.3191 11.4296C13.3191 11.836 12.9893 12.1659 12.5829 12.1659Z" fill="#4F4F4F"/>
</g>
</g>
</svg>
