<svg width="54" height="39" viewBox="0 0 54 39" fill="none" xmlns="http://www.w3.org/2000/svg">
<path d="M43.5586 14.5079C41.9766 6.43947 35.2266 0.25 27 0.25C20.4609 0.25 14.8711 4.11842 12.0234 9.86579C5.27344 10.5289 0 16.6079 0 23.9026C0 31.6395 6.01172 38.05 13.5 38.05H42.7148C48.9375 38.05 54 32.7447 54 26.2237C54 20.0342 49.3594 14.95 43.5586 14.5079ZM42.7148 33.2974H13.5C8.54297 33.2974 4.53516 29.0974 4.53516 23.9026C4.53516 19.0395 7.91016 14.95 12.5508 14.5079L14.8711 14.2868L16.0312 11.9658C18.1406 7.65526 22.3594 5.00263 27 5.00263C32.9062 5.00263 37.9688 9.42369 39.1289 15.5026L39.7617 19.0395L43.2422 19.2605C46.7227 19.4816 49.4648 22.5763 49.4648 26.2237C49.4648 30.0921 46.5117 33.2974 42.7148 33.2974ZM18.0352 21.4711H23.7305V28.5447H30.2695V21.4711H35.9648L27 12.0763L18.0352 21.4711Z" fill="white"/>
</svg>
